<?xml version="1.0" encoding="UTF-8"?>
<svg xmlns="http://www.w3.org/2000/svg" viewBox="0 0 104 88" width="104" height="88">
  <rect width="104" height="88" fill="#141414"/>
  <g stroke="#7eb8da" stroke-width="2" stroke-linecap="round" fill="none" opacity="0.95">
    <line x1="56.0" y1="11.0" x2="55.8" y2="20.0"/>
    <line x1="56.0" y1="11.0" x2="52.1" y2="10.0"/>
    <line x1="56.0" y1="11.0" x2="60.1" y2="10.0"/>
    <line x1="52.1" y1="10.0" x2="49.3" y2="12.0"/>
    <line x1="60.1" y1="10.0" x2="63.3" y2="12.0"/>
    <line x1="55.8" y1="20.0" x2="42.6" y2="26.0"/>
    <line x1="55.8" y1="20.0" x2="70.0" y2="26.0"/>
    <line x1="42.6" y1="26.0" x2="33.6" y2="38.0"/>
    <line x1="33.6" y1="38.0" x2="38.2" y2="50.0"/>
    <line x1="70.0" y1="26.0" x2="77.1" y2="36.0"/>
    <line x1="77.1" y1="36.0" x2="72.5" y2="48.0"/>
    <line x1="55.8" y1="20.0" x2="55.6" y2="52.0"/>
    <line x1="55.6" y1="52.0" x2="46.3" y2="54.0"/>
    <line x1="55.6" y1="52.0" x2="66.3" y2="54.0"/>
    <line x1="46.3" y1="54.0" x2="44.4" y2="68.0"/>
    <line x1="44.4" y1="68.0" x2="42.4" y2="82.0"/>
    <line x1="66.3" y1="54.0" x2="67.3" y2="67.0"/>
    <line x1="67.3" y1="67.0" x2="69.3" y2="81.0"/>
    <line x1="42.6" y1="26.0" x2="70.0" y2="26.0"/>
    <line x1="46.3" y1="54.0" x2="66.3" y2="54.0"/>
  </g>
  <g><circle cx="56.0" cy="11.0" r="2.4" fill="#9ed4f0" stroke="#141414" stroke-width="0.6"/>
    <circle cx="52.1" cy="10.0" r="2.4" fill="#9ed4f0" stroke="#141414" stroke-width="0.6"/>
    <circle cx="60.1" cy="10.0" r="2.4" fill="#9ed4f0" stroke="#141414" stroke-width="0.6"/>
    <circle cx="49.3" cy="12.0" r="2.4" fill="#9ed4f0" stroke="#141414" stroke-width="0.6"/>
    <circle cx="63.3" cy="12.0" r="2.4" fill="#9ed4f0" stroke="#141414" stroke-width="0.6"/>
    <circle cx="55.8" cy="20.0" r="2.4" fill="#9ed4f0" stroke="#141414" stroke-width="0.6"/>
    <circle cx="42.6" cy="26.0" r="2.4" fill="#9ed4f0" stroke="#141414" stroke-width="0.6"/>
    <circle cx="70.0" cy="26.0" r="2.4" fill="#9ed4f0" stroke="#141414" stroke-width="0.6"/>
    <circle cx="33.6" cy="38.0" r="2.4" fill="#9ed4f0" stroke="#141414" stroke-width="0.6"/>
    <circle cx="77.1" cy="36.0" r="2.4" fill="#9ed4f0" stroke="#141414" stroke-width="0.6"/>
    <circle cx="38.2" cy="50.0" r="2.4" fill="#9ed4f0" stroke="#141414" stroke-width="0.6"/>
    <circle cx="72.5" cy="48.0" r="2.4" fill="#9ed4f0" stroke="#141414" stroke-width="0.6"/>
    <circle cx="55.6" cy="52.0" r="2.4" fill="#9ed4f0" stroke="#141414" stroke-width="0.6"/>
    <circle cx="46.3" cy="54.0" r="2.4" fill="#9ed4f0" stroke="#141414" stroke-width="0.6"/>
    <circle cx="66.3" cy="54.0" r="2.4" fill="#9ed4f0" stroke="#141414" stroke-width="0.6"/>
    <circle cx="44.4" cy="68.0" r="2.4" fill="#9ed4f0" stroke="#141414" stroke-width="0.6"/>
    <circle cx="67.3" cy="67.0" r="2.4" fill="#9ed4f0" stroke="#141414" stroke-width="0.6"/>
    <circle cx="42.4" cy="82.0" r="2.4" fill="#9ed4f0" stroke="#141414" stroke-width="0.6"/>
    <circle cx="69.3" cy="81.0" r="2.4" fill="#9ed4f0" stroke="#141414" stroke-width="0.6"/></g>
  <text x="52" y="86" text-anchor="middle" fill="#6b7280" font-size="6.5" font-family="ui-monospace,monospace">pose est.</text>
</svg>