<?xml version="1.0" encoding="UTF-8"?>
<svg xmlns="http://www.w3.org/2000/svg" viewBox="0 0 104 88" width="104" height="88">
  <rect width="104" height="88" fill="#141414"/>
  <g stroke="#7eb8da" stroke-width="2" stroke-linecap="round" fill="none" opacity="0.95">
    <line x1="48.8" y1="11.0" x2="48.8" y2="20.0"/>
    <line x1="48.8" y1="11.0" x2="44.8" y2="10.0"/>
    <line x1="48.8" y1="11.0" x2="52.8" y2="10.0"/>
    <line x1="44.8" y1="10.0" x2="41.9" y2="12.0"/>
    <line x1="52.8" y1="10.0" x2="55.9" y2="12.0"/>
    <line x1="48.8" y1="20.0" x2="35.0" y2="26.0"/>
    <line x1="48.8" y1="20.0" x2="62.8" y2="26.0"/>
    <line x1="35.0" y1="26.0" x2="23.2" y2="38.0"/>
    <line x1="23.2" y1="38.0" x2="28.0" y2="50.0"/>
    <line x1="62.8" y1="26.0" x2="72.3" y2="36.0"/>
    <line x1="72.3" y1="36.0" x2="67.5" y2="48.0"/>
    <line x1="48.8" y1="20.0" x2="48.7" y2="52.0"/>
    <line x1="48.7" y1="52.0" x2="38.9" y2="54.0"/>
    <line x1="48.7" y1="52.0" x2="58.9" y2="54.0"/>
    <line x1="38.9" y1="54.0" x2="35.9" y2="68.0"/>
    <line x1="35.9" y1="68.0" x2="33.8" y2="82.0"/>
    <line x1="58.9" y1="54.0" x2="60.8" y2="67.0"/>
    <line x1="60.8" y1="67.0" x2="63.0" y2="81.0"/>
    <line x1="35.0" y1="26.0" x2="62.8" y2="26.0"/>
    <line x1="38.9" y1="54.0" x2="58.9" y2="54.0"/>
  </g>
  <g><circle cx="48.8" cy="11.0" r="2.4" fill="#9ed4f0" stroke="#141414" stroke-width="0.6"/>
    <circle cx="44.8" cy="10.0" r="2.4" fill="#9ed4f0" stroke="#141414" stroke-width="0.6"/>
    <circle cx="52.8" cy="10.0" r="2.4" fill="#9ed4f0" stroke="#141414" stroke-width="0.6"/>
    <circle cx="41.9" cy="12.0" r="2.4" fill="#9ed4f0" stroke="#141414" stroke-width="0.6"/>
    <circle cx="55.9" cy="12.0" r="2.4" fill="#9ed4f0" stroke="#141414" stroke-width="0.6"/>
    <circle cx="48.8" cy="20.0" r="2.4" fill="#9ed4f0" stroke="#141414" stroke-width="0.6"/>
    <circle cx="35.0" cy="26.0" r="2.4" fill="#9ed4f0" stroke="#141414" stroke-width="0.6"/>
    <circle cx="62.8" cy="26.0" r="2.4" fill="#9ed4f0" stroke="#141414" stroke-width="0.6"/>
    <circle cx="23.2" cy="38.0" r="2.4" fill="#9ed4f0" stroke="#141414" stroke-width="0.6"/>
    <circle cx="72.3" cy="36.0" r="2.4" fill="#9ed4f0" stroke="#141414" stroke-width="0.6"/>
    <circle cx="28.0" cy="50.0" r="2.4" fill="#9ed4f0" stroke="#141414" stroke-width="0.6"/>
    <circle cx="67.5" cy="48.0" r="2.4" fill="#9ed4f0" stroke="#141414" stroke-width="0.6"/>
    <circle cx="48.7" cy="52.0" r="2.4" fill="#9ed4f0" stroke="#141414" stroke-width="0.6"/>
    <circle cx="38.9" cy="54.0" r="2.4" fill="#9ed4f0" stroke="#141414" stroke-width="0.6"/>
    <circle cx="58.9" cy="54.0" r="2.4" fill="#9ed4f0" stroke="#141414" stroke-width="0.6"/>
    <circle cx="35.9" cy="68.0" r="2.4" fill="#9ed4f0" stroke="#141414" stroke-width="0.6"/>
    <circle cx="60.8" cy="67.0" r="2.4" fill="#9ed4f0" stroke="#141414" stroke-width="0.6"/>
    <circle cx="33.8" cy="82.0" r="2.4" fill="#9ed4f0" stroke="#141414" stroke-width="0.6"/>
    <circle cx="63.0" cy="81.0" r="2.4" fill="#9ed4f0" stroke="#141414" stroke-width="0.6"/></g>
  <text x="52" y="86" text-anchor="middle" fill="#6b7280" font-size="6.5" font-family="ui-monospace,monospace">pose est.</text>
</svg>